<mxfile host="app.diagrams.net" modified="2024-01-30T08:46:48.837Z" agent="Mozilla/5.0 (Windows NT 10.0; Win64; x64) AppleWebKit/537.36 (KHTML, like Gecko) Chrome/120.0.0.0 Safari/537.36" version="23.0.2" etag="IlpYlpGwVpTogE5NRKOF" type="github">
  <diagram name="PÃ¡gina-1" id="ieQC_0xJ8W1rtcMmRfgI">
    <mxGraphModel>
      <root>
        <mxCell id="0" />
        <mxCell id="1" parent="0" />
      </root>
    </mxGraphModel>
  </diagram>
</mxfile>
